<?xml version="1.0" encoding="iso-8859-1"?>
<!-- Uploaded to: SVG Repo, www.svgrepo.com, Transformed by: SVG Repo Tools -->
<svg version="1.1" id="Layer_1" xmlns="http://www.w3.org/2000/svg" xmlns:xlink="http://www.w3.org/1999/xlink" 
	 viewBox="0 0 512.009 512.009" xml:space="preserve">
<polyline style="fill:#FCE8CA;" points="356.702,473.287 485.8,473.287 485.8,289.002 289.154,289.002 "/>
<g>
	<path style="fill:#666666;" d="M450.966,337.32h-75.287c-3.723,0-6.742-3.018-6.742-6.742s3.019-6.742,6.742-6.742h75.287
		c3.723,0,6.742,3.018,6.742,6.742S454.688,337.32,450.966,337.32z"/>
	<path style="fill:#666666;" d="M450.966,373.278h-75.287c-3.723,0-6.742-3.018-6.742-6.742c0-3.724,3.019-6.742,6.742-6.742h75.287
		c3.723,0,6.742,3.018,6.742,6.742C457.708,370.26,454.688,373.278,450.966,373.278z"/>
	<path style="fill:#666666;" d="M450.966,409.236h-75.287c-3.723,0-6.742-3.018-6.742-6.742s3.019-6.742,6.742-6.742h75.287
		c3.723,0,6.742,3.018,6.742,6.742S454.688,409.236,450.966,409.236z"/>
	<path style="fill:#666666;" d="M450.966,445.194h-75.287c-3.723,0-6.742-3.018-6.742-6.742c0-3.724,3.019-6.742,6.742-6.742h75.287
		c3.723,0,6.742,3.018,6.742,6.742C457.708,442.176,454.688,445.194,450.966,445.194z"/>
</g>
<rect x="26.209" y="156.406" style="fill:#90BC42;" width="283.17" height="321.375"/>
<rect x="59.433" y="188.993" style="fill:#666666;" width="255.808" height="249.459"/>
<path style="fill:#999999;" d="M319.908,340.496H213.934c-38.381,0-69.496,31.114-69.496,69.496v102.01h244.964v-102.01
	C389.402,371.61,358.288,340.496,319.908,340.496z"/>
<path style="fill:#808080;" d="M256.753,340.496h-42.819c-38.381,0-69.496,31.114-69.496,69.496v102.01h42.819v-102.01
	C187.257,371.61,218.371,340.496,256.753,340.496z"/>
<g>
	<path style="fill:#E0B394;" d="M148.463,245.51c-13.934-0.618-25.025-12.113-25.025-26.193c0-14.473,11.731-26.216,26.216-26.216
		c1.303,0,2.584,0.09,3.843,0.281l17.883,29.1L148.463,245.51z"/>
	<path style="fill:#E0B394;" d="M385.359,245.51c13.934-0.618,25.036-12.113,25.036-26.193c0-14.473-11.743-26.216-26.227-26.216
		c-1.303,0-2.596,0.101-3.843,0.281l-21.288,30.269L385.359,245.51z"/>
</g>
<polyline style="fill:#666666;" points="336.585,314.277 336.585,389.754 306.246,393.125 315.235,423.465 266.92,483.02 
	218.605,423.465 227.594,393.125 197.255,389.754 197.255,314.277 "/>
<polyline style="fill:#CCCCCC;" points="301.748,343.867 266.917,443.875 232.086,343.867 "/>
<g>
	<rect x="311.311" y="465.039" style="fill:#666666;" width="52.813" height="22.474"/>
	<rect x="260.172" y="443.88" style="fill:#666666;" width="13.484" height="68.129"/>
</g>
<path style="fill:#F7CBA4;" d="M228.991,358.832l-46.126-33.513c-24.375-17.709-37.562-46.995-34.664-76.985l8.001-82.791
	c5.511-57.022,53.428-100.532,110.715-100.532l0,0c57.287,0,105.204,43.51,110.715,100.532l8.001,82.791
	c2.898,29.99-10.287,59.275-34.664,76.985l-46.126,33.513C282.228,375.263,251.605,375.263,228.991,358.832z"/>
<path style="fill:#E0B394;" d="M176.906,264.65c-0.775,13.113,3.495,26.013,11.945,36.07l48.21,59.241
	c2.517,3,5.371,5.517,8.461,7.529c-5.798-2.023-11.372-4.922-16.529-8.664l-46.127-33.508
	c-24.373-17.709-37.554-46.993-34.655-76.984l7.989-82.793c5.461-56.465,52.499-99.682,109.054-100.503
	c-34.834,0.843-74.279,33.677-76.336,68.646L176.906,264.65z"/>
<path style="fill:#90BC42;" d="M441.417,268.213c-2.792,0-5.057-2.264-5.057-5.057V89.109c0-2.792,2.264-5.057,5.057-5.057
	c2.792,0,5.057,2.264,5.057,5.057v174.048C446.473,265.949,444.21,268.213,441.417,268.213z"/>
<path style="fill:#666666;" d="M462.068,84.614l-87.816,38.082c0-9.731-214.67-9.731-214.67,0L71.766,84.614L266.917,0
	L462.068,84.614z"/>
<g>
	<path style="fill:#999999;" d="M374.251,93.48v53.521c-55.443-14.237-113.021-17.26-169.374-9.079
		c-15.215,2.202-30.328,5.236-45.296,9.079V93.48c14.968-3.843,30.081-6.866,45.296-9.068
		C261.231,76.22,318.809,79.243,374.251,93.48z"/>
	<path style="fill:#999999;" d="M125.101,276.079H90.267c-4.654,0-8.428-3.773-8.428-8.428c0-4.654,3.773-8.428,8.428-8.428h34.834
		c4.654,0,8.428,3.773,8.428,8.428C133.529,272.306,129.756,276.079,125.101,276.079z"/>
	<path style="fill:#999999;" d="M125.101,312.037H90.267c-4.654,0-8.428-3.773-8.428-8.428c0-4.654,3.773-8.428,8.428-8.428h34.834
		c4.654,0,8.428,3.773,8.428,8.428C133.529,308.264,129.756,312.037,125.101,312.037z"/>
	<path style="fill:#999999;" d="M140.833,347.995H90.267c-4.654,0-8.428-3.773-8.428-8.428c0-4.654,3.773-8.428,8.428-8.428h50.566
		c4.654,0,8.428,3.773,8.428,8.428C149.261,344.222,145.487,347.995,140.833,347.995z"/>
</g>
<path style="fill:#808080;" d="M204.878,84.412v53.51c-15.215,2.202-30.328,5.236-45.296,9.079V93.48
	C174.549,89.637,189.663,86.614,204.878,84.412z"/>
<path style="fill:#E0B394;" d="M279.839,228.786v36.4c0,7.135-5.787,12.922-12.922,12.922c-3.562,0-6.798-1.45-9.136-3.787
	s-3.787-5.562-3.787-9.136V226.46"/>
<g>
	<path style="fill:#666666;" d="M216.893,240.299c-4.344,0-7.866-3.522-7.866-7.866v-13.48c0-4.344,3.522-7.866,7.866-7.866
		c4.344,0,7.866,3.522,7.866,7.866v13.48C224.759,236.777,221.238,240.299,216.893,240.299z"/>
	<path style="fill:#666666;" d="M316.94,240.299c-4.344,0-7.866-3.522-7.866-7.866v-13.48c0-4.344,3.522-7.866,7.866-7.866
		s7.866,3.522,7.866,7.866v13.48C324.806,236.777,321.284,240.299,316.94,240.299z"/>
</g>
<path style="fill:#F2F2F2;" d="M310.903,291.848c0,0-0.641,1.573-1.989,4.057c-0.326,0.641-0.708,1.315-1.135,2.045
	c-0.506,0.719-1.09,1.45-1.719,2.27c-0.629,0.82-1.348,1.652-2.113,2.573c-0.27,0.348-0.562,0.641-0.876,0.944
	c-0.112,0.112-0.236,0.225-0.36,0.337c-0.438,0.405-0.888,0.832-1.348,1.259c-0.921,0.865-1.922,1.719-2.967,2.618
	c-1.101,0.809-2.281,1.573-3.495,2.405c-0.607,0.416-1.236,0.82-1.877,1.225c-0.641,0.382-1.326,0.697-2.023,1.045
	c-1.371,0.697-2.798,1.371-4.27,2.045c-3.034,1.034-6.192,2.247-9.563,2.753c-3.326,0.775-6.798,0.899-10.259,1.068
	c-3.461-0.169-6.933-0.281-10.259-1.056c-3.371-0.506-6.529-1.719-9.563-2.753c-1.472-0.663-2.899-1.337-4.281-2.034
	c-0.685-0.348-1.371-0.663-2.023-1.045c-0.629-0.416-1.259-0.809-1.865-1.225c-1.214-0.832-2.405-1.607-3.506-2.405
	c-1.045-0.899-2.034-1.764-2.967-2.618c-0.461-0.438-0.899-0.854-1.337-1.27c-0.157-0.146-0.315-0.292-0.472-0.438
	c-0.27-0.27-0.528-0.528-0.753-0.832c-0.73-0.888-1.438-1.708-2.056-2.517c-0.607-0.82-1.202-1.539-1.697-2.259
	c-0.449-0.764-0.865-1.461-1.214-2.101c-1.405-2.562-1.989-4.09-1.989-4.09s1.663,0.506,4.225,1.539
	c0.652,0.247,1.326,0.551,2.079,0.854c0.798,0.236,1.618,0.539,2.495,0.832c0.888,0.292,1.775,0.652,2.719,0.989
	c0.933,0.36,1.989,0.596,3.034,0.91c1.045,0.303,2.09,0.674,3.18,1c1.135,0.247,2.27,0.539,3.438,0.82
	c0.584,0.135,1.157,0.303,1.742,0.461c0.596,0.135,1.214,0.214,1.82,0.337c1.225,0.214,2.45,0.461,3.674,0.742
	c2.551,0.236,5.068,0.798,7.697,0.899c2.596,0.337,5.248,0.247,7.877,0.405c2.641-0.157,5.293-0.056,7.888-0.393
	c2.629-0.09,5.147-0.663,7.697-0.899c1.225-0.27,2.45-0.517,3.674-0.73c0.607-0.124,1.225-0.202,1.82-0.337
	c0.584-0.169,1.169-0.326,1.742-0.461c1.169-0.281,2.304-0.584,3.438-0.82c1.101-0.326,2.146-0.697,3.191-1
	c1.034-0.315,2.113-0.562,3.011-0.91c0.921-0.315,1.787-0.663,2.663-0.933c0.865-0.292,1.674-0.584,2.472-0.82
	c0.787-0.337,1.483-0.663,2.146-0.921C309.274,292.32,310.903,291.848,310.903,291.848z"/>
<path style="fill:#4D4D4D;" d="M303.071,303.737c-0.112,0.112-0.236,0.225-0.36,0.337c-0.438,0.405-0.888,0.832-1.348,1.259
	c-0.921,0.865-1.922,1.719-2.967,2.618c-1.101,0.809-2.281,1.573-3.495,2.405c-0.607,0.416-1.236,0.82-1.877,1.225
	c-0.641,0.382-1.326,0.697-2.023,1.045c-1.371,0.697-2.798,1.371-4.27,2.045c-3.034,1.034-6.192,2.247-9.563,2.753
	c-3.326,0.775-6.798,0.899-10.259,1.068c-3.461-0.169-6.933-0.281-10.259-1.056c-3.371-0.506-6.529-1.719-9.563-2.753
	c-1.472-0.663-2.899-1.337-4.281-2.034c-0.685-0.348-1.371-0.663-2.023-1.045c-0.629-0.416-1.259-0.809-1.865-1.225
	c-1.214-0.832-2.405-1.607-3.506-2.405c-1.045-0.899-2.034-1.764-2.967-2.618c-0.461-0.438-0.899-0.854-1.337-1.27
	c-0.157-0.146-0.315-0.292-0.472-0.438c0.36,0.124,0.719,0.247,1.09,0.371c0.888,0.292,1.775,0.641,2.719,0.978
	c0.933,0.371,1.989,0.607,3.034,0.921c1.045,0.303,2.09,0.663,3.18,1c1.135,0.236,2.27,0.539,3.438,0.82
	c0.584,0.135,1.157,0.292,1.742,0.449c0.596,0.135,1.214,0.214,1.82,0.337c1.225,0.214,2.45,0.472,3.674,0.742
	c2.551,0.247,5.068,0.809,7.697,0.899c2.596,0.348,5.248,0.247,7.877,0.416c2.641-0.157,5.293-0.056,7.888-0.405
	c2.629-0.09,5.147-0.652,7.697-0.888c1.225-0.27,2.45-0.528,3.674-0.742c0.607-0.124,1.225-0.202,1.82-0.337
	c0.584-0.157,1.169-0.315,1.742-0.449c1.169-0.281,2.304-0.584,3.438-0.82c1.101-0.337,2.146-0.708,3.191-1
	c1.034-0.315,2.113-0.573,3.011-0.91c0.921-0.326,1.787-0.663,2.663-0.944C302.386,303.973,302.734,303.849,303.071,303.737z"/>
<g>
	<path style="fill:#666666;" d="M297.672,187.585c0,0,0.022-0.224,0.098-0.608c0.087-0.372,0.174-0.96,0.363-1.625
		c0.084-0.344,0.193-0.702,0.318-1.097c0.163-0.4,0.382-0.802,0.615-1.259c0.23-0.458,0.521-0.911,0.827-1.42
		c0.308-0.517,0.675-0.909,1.052-1.408c0.382-0.48,0.812-0.944,1.262-1.443c0.475-0.451,0.991-0.894,1.539-1.341
		c1.073-0.945,2.384-1.628,3.751-2.388c1.414-0.598,2.914-1.246,4.521-1.546c1.591-0.414,3.26-0.511,4.924-0.589
		c1.664,0.076,3.334,0.165,4.926,0.576c1.608,0.297,3.109,0.948,4.524,1.542c1.368,0.758,2.68,1.441,3.754,2.387
		c0.547,0.447,1.064,0.892,1.541,1.341c0.449,0.5,0.878,0.969,1.262,1.445c0.371,0.497,0.756,0.905,1.038,1.401
		c0.283,0.494,0.557,0.937,0.78,1.386c0.221,0.449,0.436,0.845,0.598,1.244c0.147,0.416,0.278,0.792,0.374,1.148
		c0.214,0.689,0.302,1.281,0.384,1.652c0.072,0.383,0.088,0.601,0.088,0.601s-0.233-0.006-0.626-0.044
		c-0.382-0.049-0.975-0.074-1.63-0.17c-0.339-0.035-0.685-0.098-1.066-0.148c-0.406-0.019-0.806-0.075-1.241-0.109
		c-0.853-0.09-1.743-0.224-2.722-0.262c-0.481-0.031-0.947-0.101-1.435-0.142c-0.505-0.007-1.002-0.033-1.497-0.07
		c-0.969-0.126-2.022-0.052-2.999-0.174c-1.028,0.037-2.013-0.089-3.032-0.057c-1.002-0.075-2.016,0.004-3.022-0.066
		c-1.006,0.069-2.019-0.019-3.024,0.054c-1.02-0.036-2.005,0.094-3.035,0.053c-0.979,0.121-2.034,0.046-3.002,0.173
		c-0.494,0.037-0.992,0.064-1.498,0.07c-0.488,0.04-0.952,0.115-1.435,0.144c-0.998,0.054-1.827,0.148-2.66,0.22
		c-0.437,0.034-0.846,0.065-1.225,0.093c-0.403,0.073-0.772,0.154-1.123,0.2c-0.68,0.12-1.274,0.148-1.652,0.197
		C297.897,187.585,297.672,187.585,297.672,187.585z"/>
	<path style="fill:#666666;" d="M197.625,187.585c0,0,0.022-0.224,0.098-0.608c0.087-0.372,0.174-0.96,0.363-1.625
		c0.084-0.344,0.193-0.702,0.318-1.097c0.163-0.4,0.382-0.802,0.615-1.259c0.23-0.458,0.521-0.911,0.827-1.42
		c0.308-0.517,0.675-0.909,1.052-1.408c0.382-0.48,0.812-0.944,1.262-1.443c0.475-0.451,0.991-0.894,1.539-1.341
		c1.073-0.945,2.384-1.628,3.751-2.388c1.414-0.598,2.914-1.246,4.521-1.546c1.591-0.414,3.26-0.511,4.924-0.589
		c1.664,0.076,3.334,0.165,4.926,0.576c1.608,0.297,3.109,0.948,4.524,1.542c1.368,0.758,2.68,1.441,3.754,2.387
		c0.547,0.447,1.064,0.892,1.541,1.341c0.449,0.5,0.878,0.969,1.262,1.445c0.371,0.497,0.756,0.905,1.038,1.401
		c0.283,0.494,0.557,0.937,0.78,1.386c0.221,0.449,0.436,0.845,0.598,1.244c0.147,0.416,0.278,0.792,0.374,1.148
		c0.214,0.689,0.302,1.281,0.384,1.652c0.072,0.383,0.088,0.601,0.088,0.601s-0.233-0.006-0.626-0.044
		c-0.382-0.049-0.975-0.074-1.63-0.17c-0.339-0.035-0.685-0.098-1.066-0.148c-0.406-0.019-0.806-0.075-1.241-0.109
		c-0.853-0.09-1.743-0.224-2.722-0.262c-0.481-0.031-0.947-0.101-1.435-0.142c-0.505-0.007-1.002-0.033-1.497-0.07
		c-0.969-0.126-2.022-0.052-2.999-0.174c-1.028,0.037-2.013-0.089-3.032-0.057c-1.002-0.075-2.016,0.004-3.022-0.066
		c-1.006,0.069-2.019-0.019-3.024,0.054c-1.02-0.036-2.005,0.094-3.035,0.053c-0.979,0.121-2.034,0.046-3.002,0.173
		c-0.494,0.037-0.992,0.064-1.498,0.07c-0.488,0.04-0.952,0.115-1.435,0.144c-0.998,0.054-1.827,0.148-2.66,0.22
		c-0.437,0.034-0.846,0.065-1.225,0.093c-0.403,0.073-0.772,0.154-1.123,0.2c-0.68,0.12-1.274,0.148-1.652,0.197
		C197.85,187.585,197.625,187.585,197.625,187.585z"/>
	<circle style="fill:#666666;" cx="441.412" cy="233.941" r="14.608"/>
</g>
<g>
</g>
<g>
</g>
<g>
</g>
<g>
</g>
<g>
</g>
<g>
</g>
<g>
</g>
<g>
</g>
<g>
</g>
<g>
</g>
<g>
</g>
<g>
</g>
<g>
</g>
<g>
</g>
<g>
</g>
</svg>
